{"title":"Happy Bhaag Jayegi (2016) x264 DesiSCR Rip AAC 2.0 -DDR","uid":15611597,"size":1480620076,"categoryP":"video","categoryS":"movies","magnet":"?xt=urn:btih:9acd450d0e950118622c507008d67d84bf9fdee0&amp;dn=Happy+Bhaag+Jayegi+%282016%29+x264+DesiSCR+Rip+AAC+2.0+-DDR&amp;tr=udp%3A%2F%2Ftracker.leechers-paradise.org%3A6969&amp;tr=udp%3A%2F%2Fzer0day.ch%3A1337&amp;tr=udp%3A%2F%2Fopen.demonii.com%3A1337&amp;tr=udp%3A%2F%2Ftracker.coppersurfer.tk%3A6969&amp;tr=udp%3A%2F%2Fexodus.desync.com%3A6969","seeders":154,"leechers":39,"uploader":"SaM","files":3,"time":1471788794,"description":"** Happy Bhaag Jayegi **\r\n\r\n** 2016**\r\n\r\n** x264 / DesiSCR / AAC 2.0 **\r\n\r\n** **\r\n\r\n\r\n\r\n[ SCREENS ]\r\n \nhttp://extraimago.com/image/wcFV \nhttp://extraimago.com/image/wcF6 \nhttp://extraimago.com/image/wcFx \nhttp://extraimago.com/image/wcFt \nhttp://extraimago.com/image/wcFo \nhttp://extraimago.com/image/wcFk \nhttp://extraimago.com/image/wcFH \nhttp://extraimago.com/image/wcFF \nhttp://extraimago.com/image/wcFD \nhttp://extraimago.com/image/wcF5 \nhttp://extraimago.com/image/wcFg \nhttp://extraimago.com/image/wcFX \nhttp://extraimago.com/image/wcFP \nhttp://extraimago.com/image/wcFG \nhttp://extraimago.com/image/wcFr \nhttp://extraimago.com/image/wcFp \nhttp://extraimago.com/image/wcFY \nhttp://extraimago.com/image/wcFC\r\n\r\n[ Info ]\r\nSource : DesiSCR DVD @ ICTV\r\nFormat : Matroska\r\nFile size : 1.37 GiB\r\nDuration : 2h 5mn\r\nOverall bit rate : 1 558 Kbps\r\n\r\nVideo\r\nFormat : AVC\r\nFormat/Info : Advanced Video Codec\r\nFormat profile :   \r\nFormat settings, CABAC : Yes\r\nFormat settings, ReFrames : 16 frames\r\nCodec ID : V_MPEG4/ISO/AVC\r\nDuration : 2h 5mn\r\nBit rate : 1 427 Kbps\r\nWidth : 720 pixels\r\nHeight : 304 pixels\r\nDisplay aspect ratio : 2.35:1\r\nFrame rate mode : Constant\r\nFrame rate : 25.000 fps\r\ncolor space : YUV\r\nChroma subsampling : 4:2:0\r\nBit depth : 8 bits\r\nScan type : Progressive\r\nBits/(Pixel*Frame) : 0.261\r\nStream size : 1.25 GiB (92%)\r\nDefault : Yes\r\nForced : No\r\ncolor range : Limited\r\ncolor primaries : BT.601 NTSC\r\nTransfer characteristics : BT.470 System B, BT.470 System G\r\nMatrix coefficients : BT.601\r\n\r\nAudio\r\nFormat : AAC\r\nFormat/Info : Advanced Audio Codec\r\nFormat profile : LC\r\nCodec ID : A_AAC\r\nDuration : 2h 5mn\r\nBit rate : 128 Kbps\r\nChannel(s) : 2 channels\r\nChannel positions : Front: L R\r\nSampling rate : 48.0 KHz\r\nFrame rate : 46.875 fps (1024 spf)\r\nCompression mode : Lossy\r\nDelay relative to video : 9ms\r\nStream size : 115 MiB (8%)\r\nLanguage : Hindi\r\nDefault : Yes\r\nForced : No\r\n\r\n\r\nChapters = No","torrent":{"xt":"urn:btih:9acd450d0e950118622c507008d67d84bf9fdee0","amp;dn":"Happy+Bhaag+Jayegi+%282016%29+x264+DesiSCR+Rip+AAC+2.0+-DDR","amp;tr":["udp%3A%2F%2Ftracker.leechers-paradise.org%3A6969","udp%3A%2F%2Fzer0day.ch%3A1337","udp%3A%2F%2Fopen.demonii.com%3A1337","udp%3A%2F%2Ftracker.coppersurfer.tk%3A6969","udp%3A%2F%2Fexodus.desync.com%3A6969"],"infoHash":"9acd450d0e950118622c507008d67d84bf9fdee0","infoHashBuffer":{"type":"Buffer","data":[154,205,69,13,14,149,1,24,98,44,80,112,8,214,125,132,191,159,222,224]},"announce":[],"urlList":[]}}